<?xml version="1.0" encoding="UTF-8" standalone="no"?>
<svg
   xmlns:dc="http://purl.org/dc/elements/1.1/"
   xmlns:cc="http://creativecommons.org/ns#"
   xmlns:rdf="http://www.w3.org/1999/02/22-rdf-syntax-ns#"
   xmlns:svg="http://www.w3.org/2000/svg"
   xmlns="http://www.w3.org/2000/svg"
   xmlns:sodipodi="http://sodipodi.sourceforge.net/DTD/sodipodi-0.dtd"
   xmlns:inkscape="http://www.inkscape.org/namespaces/inkscape"
   width="2160"
   height="2160"
   viewBox="0 0 571.49999 571.50002"
   version="1.1"
   id="svg8"
   inkscape:version="1.0.1 (3bc2e813f5, 2020-09-07)"
   sodipodi:docname="Stay_Logo_White.svg">
  <defs
     id="defs2" />
  <sodipodi:namedview
     id="base"
     pagecolor="#ffffff"
     bordercolor="#666666"
     borderopacity="1.0"
     inkscape:pageopacity="0.0"
     inkscape:pageshadow="2"
     inkscape:zoom="0.35"
     inkscape:cx="1176.4805"
     inkscape:cy="1136.0023"
     inkscape:document-units="mm"
     inkscape:current-layer="layer1"
     inkscape:document-rotation="0"
     showgrid="false"
     units="px"
     inkscape:window-width="1503"
     inkscape:window-height="1021"
     inkscape:window-x="50"
     inkscape:window-y="27"
     inkscape:window-maximized="0" />
  <metadata
     id="metadata5">
    <rdf:RDF>
      <cc:Work
         rdf:about="">
        <dc:format>image/svg+xml</dc:format>
        <dc:type
           rdf:resource="http://purl.org/dc/dcmitype/StillImage" />
        <dc:title></dc:title>
      </cc:Work>
    </rdf:RDF>
  </metadata>
  <g
     inkscape:label="Layer 1"
     inkscape:groupmode="layer"
     id="layer1">
    <path
       style="fill:#ffffff;stroke-width:0.551578;fill-opacity:1"
       d="m 369.99967,529.14175 c -15.43261,-3.39735 -33.92025,-19.19749 -48.41798,-41.37953 -18.24981,-27.92287 -28.69384,-61.69099 -26.39931,-85.35548 3.29398,-33.97236 23.82951,-53.27482 64.33729,-60.4742 6.07626,-1.07994 15.82259,-1.98552 28.0205,-2.60344 l 6.5089,-0.32973 -0.29361,-3.66703 c -0.16139,-2.01685 -0.4413,-5.56884 -0.62194,-7.89326 l -0.32836,-4.2263 -2.83354,1.46841 c -3.8413,1.99065 -9.41218,2.04431 -13.07719,0.12612 -3.3827,-1.7705 -10.0412,-8.33375 -13.06181,-12.87497 l -2.48583,-3.73722 -2.84409,4.81978 c -3.65484,6.19373 -10.87153,13.58178 -15.52734,15.896 -2.53594,1.26053 -4.24906,1.69108 -7.35174,1.84779 -3.77121,0.19033 -4.33201,0.0628 -8.27674,-1.88508 -5.23117,-2.58293 -12.51439,-9.64729 -15.75419,-15.28069 l -2.14593,-3.73137 -3.45812,7.04086 c -4.00134,8.14695 -7.55849,12.53056 -11.93963,14.71375 -3.45666,1.72252 -4.88929,1.7773 -7.93406,0.30333 -4.19325,-2.02986 -8.65712,-9.18094 -10.63723,-17.04058 l -1.03296,-4.10012 -2.53723,5.28644 c -4.49635,9.36829 -12.73996,20.66039 -18.74614,25.67838 -8.86783,7.40887 -17.05572,5.04202 -22.61318,-6.53662 -6.28646,-13.09752 -9.26614,-29.71381 -9.40516,-52.44821 -0.0383,-6.26955 -0.14261,-11.32633 -0.23173,-11.23727 -0.0891,0.0891 -2.23997,3.89895 -4.77971,8.46645 -4.76058,8.56153 -10.7908,17.93329 -14.99577,23.30541 -2.2322,2.85179 -2.40146,3.30349 -2.40146,6.4088 0,6.79931 -2.43023,16.71521 -5.65319,23.06634 -4.79365,9.44635 -14.84098,18.6344 -25.8318,23.62256 -7.99574,3.62884 -19.74254,7.00294 -29.07711,8.35201 -22.21498,3.21057 -38.973831,-0.13673 -53.749222,-10.73517 -8.364038,-5.99965 -19.472461,-17.86779 -24.676217,-26.36394 -5.839893,-9.5348 -5.842032,-19.96467 -0.0054,-25.97899 2.80846,-2.89391 6.64035,-4.79762 13.183782,-6.54975 4.780278,-1.27999 6.323751,-1.42068 16.04486,-1.46253 11.492937,-0.0496 14.622197,0.32199 25.487567,3.02545 8.55933,2.12964 15.7161,4.55975 29.2283,9.92453 17.62854,6.9991 25.09573,8.41261 33.23808,6.2918 3.53145,-0.91983 9.46096,-3.85369 9.83485,-4.86619 0.61881,-1.67571 -1.01114,-10.15497 -3.24942,-16.90399 -5.14712,-15.52001 -15.44055,-33.49036 -33.5819,-58.62762 -3.45714,-4.79034 -8.34818,-12.04564 -10.86896,-16.12291 -2.52078,-4.0773 -4.77419,-7.41809 -5.00756,-7.424 -0.23339,-0.006 -2.36432,1.66468 -4.73544,3.7124 -9.89661,8.54691 -23.73385,17.8176 -28.18966,18.88654 -2.411027,0.5784 -3.010418,0.53414 -4.834074,-0.35682 -1.579831,-0.77186 -2.125427,-1.39901 -2.262797,-2.6011 -0.264691,-2.31636 0.82958,-3.14311 2.101217,-1.58756 2.005651,2.4535 4.553544,1.40153 14.204934,-5.86489 8.00405,-6.02602 20.55506,-16.98415 20.55506,-17.94619 0,-0.39102 -1.14215,-3.15507 -2.53812,-6.14237 -7.76657,-16.62002 -10.99787,-34.86168 -9.62849,-54.35577 2.59452,-36.93497 14.82673,-64.221312 37.86073,-84.455779 13.54961,-11.902774 22.02323,-16.477437 30.56776,-16.502576 9.04827,-0.0258 17.17989,5.478204 21.07372,14.266239 4.41262,9.958904 4.88985,24.801075 1.20692,37.536188 -4.36541,15.095058 -18.41963,43.730268 -30.03251,61.190618 -6.89421,10.36572 -18.45482,24.88036 -31.32914,39.33464 l -5.58125,6.26617 1.71793,3.06369 c 2.89576,5.16424 9.35893,14.71464 17.00444,25.12688 12.15847,16.55836 17.7085,25.41266 25.06607,39.98949 5.24593,10.39323 8.00698,17.13042 9.81041,23.93815 0.69164,2.61087 1.50783,4.66636 1.81374,4.56778 1.9108,-0.61589 13.43031,-19.15753 19.93756,-32.0912 l 4.16269,-8.27368 0.78618,-9.92843 c 0.8882,-11.21683 2.84259,-31.09898 3.3164,-33.73794 l 0.31354,-1.74637 -3.22428,-0.35908 c -16.65828,-1.85519 -28.55845,-5.43123 -30.56777,-9.18565 -0.85011,-1.58845 0.78046,-4.00658 2.43328,-3.60854 6.56848,1.5818 13.30606,2.71939 21.80893,3.68235 5.57514,0.63137 10.21842,1.06613 10.31841,0.96615 0.1,-0.10004 0.69686,-3.52261 1.3264,-7.60585 3.5025,-22.71755 8.18718,-38.42276 14.39134,-48.24636 3.42802,-5.42787 7.2052,-6.60866 9.1444,-2.85865 0.70526,1.36387 0.8653,3.63154 0.84157,11.92674 -0.0399,13.95606 -1.94542,28.96213 -5.57309,43.88898 -0.58983,2.42696 -0.9032,4.56466 -0.69641,4.75049 0.20696,0.18575 10.18034,1.13888 22.16341,2.11787 36.00319,2.9414 39.42722,3.4142 46.10132,6.36581 4.54643,2.01065 4.0665,3.0374 -1.41979,3.0374 -4.83308,0 -43.12699,-1.90833 -55.43732,-2.76265 -4.24717,-0.29476 -9.08727,-0.53767 -10.75581,-0.53982 l -3.03368,-0.003 -3.18379,9.789 c -1.7511,5.38387 -4.55073,13.13978 -6.22139,17.23525 -2.76645,6.78162 -3.09367,8.03713 -3.66572,14.06527 -0.34546,3.64042 -0.64774,14.93399 -0.67173,25.09684 -0.0471,19.95499 0.47542,25.88294 3.26221,37.01013 2.96505,11.83894 7.33048,20.35409 10.4349,20.35409 1.94029,0 6.11932,-3.09026 10.0541,-7.43478 8.3804,-9.25297 14.44778,-19.82717 17.10454,-29.80975 1.31161,-4.92835 1.45322,-6.36661 1.35633,-13.77653 -0.0596,-4.55052 -0.15995,-8.99407 -0.22359,-9.87457 -0.0634,-0.88049 0.16712,-1.69856 0.5121,-1.81795 0.72622,-0.2511 3.77841,6.7713 4.36274,10.03779 0.217,1.21347 0.50746,2.40317 0.64528,2.64375 0.13787,0.2405 1.11611,-1.37275 2.17399,-3.58527 5.01945,-10.49794 14.56143,-21.91362 20.9311,-25.04117 2.77739,-1.36372 3.89388,-1.59393 7.66366,-1.5802 3.74219,0.0143 4.86355,0.2511 7.38051,1.56266 6.36019,3.31436 11.22222,10.35092 13.02159,18.84551 2.19847,10.37856 -0.23476,11.30627 -4.96648,1.89345 -3.42423,-6.81206 -6.13096,-9.99528 -10.24867,-12.05292 -1.88795,-0.94341 -3.95147,-1.70985 -4.58559,-1.7032 -7.41766,0.078 -22.01406,19.74296 -25.76885,34.71713 -2.03379,8.11086 -0.78874,17.40268 3.12414,23.31549 2.00487,3.02955 2.73983,3.11747 5.30498,0.63453 4.72455,-4.57315 8.38644,-14.34249 13.14015,-35.05546 1.37459,-5.9895 2.02315,-7.83304 3.15326,-8.96315 2.54529,-2.54525 6.77663,-1.37605 7.65274,2.1146 0.17944,0.71524 -0.0966,3.99718 -0.61368,7.29314 -1.69518,10.80618 -0.38718,17.99853 4.67848,25.72572 10.40138,15.86627 21.73392,14.19205 31.73866,-4.68881 4.3604,-8.22893 4.84325,-9.87821 5.2924,-18.0779 0.57158,-10.43494 3.04709,-18.60181 6.28076,-20.7206 1.96672,-1.28865 4.55222,-1.13182 6.15432,0.37327 1.12681,1.05859 1.31336,1.75079 1.31004,4.86134 -0.006,4.14535 -1.43998,10.73191 -3.93453,18.05222 -2.04459,5.99991 -1.94771,7.04732 1.24159,13.41934 2.49409,4.98302 7.28463,10.54599 10.48983,12.18114 4.36785,2.22831 8.66449,0.77799 11.96469,-4.03866 l 1.60374,-2.34068 0.31158,-12.13475 c 0.31076,-12.10492 0.70083,-15.8651 2.40311,-23.16633 1.69804,-7.28302 3.83528,-10.17039 7.54416,-10.19195 3.17081,-0.0172 5.11508,2.16863 5.63626,6.34007 0.82219,6.58019 -0.66723,18.54316 -3.43335,27.5772 -1.87995,6.13975 -2.08662,10.86256 -1.1463,26.1926 l 0.69363,11.30738 3.86105,0.36645 c 13.98705,1.32749 19.5695,1.95628 40.81684,4.59725 31.14991,3.87181 36.59816,4.33007 47.60817,4.00435 17.25394,-0.51032 21.91517,-3.31895 30.6744,-18.48279 4.01805,-6.95593 4.76213,-5.90136 1.97514,2.79908 -1.86536,5.82336 -4.76305,10.67294 -8.24991,13.8072 -3.1543,2.83532 -9.26275,5.66774 -14.65923,6.79727 -6.3992,1.33939 -23.33594,1.19908 -37.21595,-0.30834 -37.24885,-4.0454 -63.20179,-6.13102 -64.02547,-5.14518 -0.17916,0.21441 0.23161,9.94606 0.91314,21.62577 3.28343,56.27644 4.31385,94.17656 3.03508,111.63556 -0.72544,9.9041 -2.25359,19.72111 -3.9588,25.43185 -1.6821,5.6333 -5.2656,12.15909 -8.49118,15.46296 -6.36383,6.51822 -16.70429,9.31518 -26.4812,7.16286 z m 11.70524,-12.70287 c 6.05853,-1.7992 10.82467,-8.30546 13.32988,-18.19666 5.86022,-23.13709 6.26511,-58.90053 1.4271,-126.03581 -0.75422,-10.46622 -1.51739,-20.20847 -1.69586,-21.64948 l -0.32463,-2.62001 h -3.94713 c -9.6249,0.006 -25.88916,2.19285 -37.27164,5.01469 -16.34633,4.05239 -26.8691,9.59681 -35.57337,18.74353 -9.6544,10.14508 -14.14083,24.16916 -13.39713,41.87781 0.63137,15.03439 4.74158,29.58545 13.32117,47.16003 12.06152,24.70699 29.1463,44.43742 45.67508,52.74793 7.40175,3.72151 12.9089,4.60356 18.45653,2.95608 z M 142.95721,350.45494 c 13.0477,-2.83869 23.38812,-7.29861 30.1209,-12.9914 5.70622,-4.82476 10.66522,-12.21422 12.32921,-18.37189 0.54178,-2.00487 0.51472,-2.07796 -0.63779,-1.72275 -0.66196,0.20409 -1.87384,0.71183 -2.69306,1.12842 -2.76065,1.40399 -8.40599,2.39591 -13.67893,2.40336 -6.74078,0.009 -12.94211,-1.48079 -27.02737,-6.49531 -22.71676,-8.08753 -33.43297,-10.55327 -47.746918,-10.98637 -10.79348,-0.32657 -16.465633,0.37755 -21.913266,2.72026 -3.22865,1.38843 -4.253059,2.75256 -4.246022,5.65406 0.01118,4.63526 5.641608,13.10013 14.883959,22.37701 10.285917,10.3243 18.784047,15.16683 30.528537,17.3962 6.64963,1.26223 21.73123,0.70493 30.08075,-1.11159 z m 95.17248,-136.34675 c 0.33724,-1.54534 0.22273,-1.76414 -1.09657,-2.09525 -0.81021,-0.20323 -1.59508,-0.24766 -1.74413,-0.0986 -0.36708,0.36708 -1.76541,12.26157 -1.72525,14.67531 0.0246,1.47578 0.52175,0.43639 2.11076,-4.41265 1.14324,-3.48873 2.24809,-7.11963 2.45519,-8.06869 z m 2.73605,-11.09867 c 0.71152,-2.40408 3.13512,-15.9838 3.9177,-21.95131 1.10193,-8.4025 1.70283,-24.07437 0.87347,-22.78073 -1.85349,2.89119 -5.66676,19.2116 -8.03519,34.38992 -1.83778,11.77757 -1.8706,11.30738 0.7892,11.30738 1.58929,0 2.24551,-0.25798 2.45482,-0.96526 z m -92.38726,-19.68336 c 18.42854,-22.89521 25.24891,-33.06039 34.81179,-51.88403 16.16192,-31.81325 19.94546,-50.421624 13.68076,-67.285376 -2.16106,-5.817279 -7.52504,-9.787775 -11.86756,-8.784509 -0.84563,0.195206 -3.35413,1.31832 -5.57445,2.495437 -12.17411,6.454296 -27.10652,21.419267 -34.7047,34.780417 -5.68802,10.002191 -10.72883,25.278631 -13.20514,40.018871 -1.44095,8.57721 -1.44075,31.93186 3.3e-4,39.02042 1.21599,5.98139 3.79405,14.20507 5.95056,18.98153 1.38984,3.07837 1.69684,3.42699 2.46013,2.7935 0.47966,-0.39807 4.28139,-4.9594 8.44828,-10.13626 z"
       id="path847" />
  </g>
</svg>
