<?xml version="1.0" encoding="UTF-8" standalone="no"?>
<svg
   width="2160"
   height="2160"
   viewBox="0 0 571.49999 571.50002"
   version="1.1"
   id="svg8"
   inkscape:version="1.2 (1:1.2.1+202207142221+cd75a1ee6d)"
   sodipodi:docname="Stay_Logo_Black (copy).svg"
   xmlns:inkscape="http://www.inkscape.org/namespaces/inkscape"
   xmlns:sodipodi="http://sodipodi.sourceforge.net/DTD/sodipodi-0.dtd"
   xmlns="http://www.w3.org/2000/svg"
   xmlns:svg="http://www.w3.org/2000/svg"
   xmlns:rdf="http://www.w3.org/1999/02/22-rdf-syntax-ns#"
   xmlns:cc="http://creativecommons.org/ns#"
   xmlns:dc="http://purl.org/dc/elements/1.1/">
  <defs
     id="defs2">
    <inkscape:path-effect
       effect="offset"
       id="path-effect289"
       is_visible="true"
       lpeversion="1.2"
       linejoin_type="miter"
       unit="px"
       offset="20"
       miter_limit="4"
       attempt_force_join="false"
       update_on_knot_move="true" />
  </defs>
  <sodipodi:namedview
     id="base"
     pagecolor="#ffffff"
     bordercolor="#666666"
     borderopacity="1.0"
     inkscape:pageopacity="0.0"
     inkscape:pageshadow="2"
     inkscape:zoom="0.35"
     inkscape:cx="1180"
     inkscape:cy="1138.5714"
     inkscape:document-units="mm"
     inkscape:current-layer="layer1"
     inkscape:document-rotation="0"
     showgrid="false"
     units="px"
     inkscape:window-width="1920"
     inkscape:window-height="1142"
     inkscape:window-x="0"
     inkscape:window-y="0"
     inkscape:window-maximized="1"
     inkscape:showpageshadow="2"
     inkscape:pagecheckerboard="0"
     inkscape:deskcolor="#d1d1d1" />
  <metadata
     id="metadata5">
    <rdf:RDF>
      <cc:Work
         rdf:about="">
        <dc:format>image/svg+xml</dc:format>
        <dc:type
           rdf:resource="http://purl.org/dc/dcmitype/StillImage" />
        <dc:title />
      </cc:Work>
    </rdf:RDF>
  </metadata>
  <g
     inkscape:label="Layer 1"
     inkscape:groupmode="layer"
     id="layer1">
    <path
       style="fill:#000000;stroke-width:0.551578"
       d="m 187.13672,36.445312 c -10.54008,0.03101 -20.15861,5.61981 -34.04492,17.81836 -24.37686,21.414112 -36.9661,49.901258 -39.64649,88.058598 -1.42986,20.35509 1.92986,39.4589 10.11133,56.96679 0.49107,1.05086 0.8618,1.91806 1.23438,2.78321 -0.1426,0.13571 -0.29168,0.27406 -0.44727,0.41992 -1.14075,1.06935 -2.5844,2.36858 -4.20898,3.78711 -4.07242,3.55589 -9.10763,7.71558 -12.98243,10.63281 -3.82827,2.88226 -6.18515,4.53662 -7.935543,5.48828 -0.08667,0.0471 -0.147177,0.0751 -0.224609,0.11523 -4.954888,-4.2246 -10.938433,0.3948 -10.220704,6.67579 0.409502,3.58344 2.592466,5.48127 5.197266,6.7539 2.867344,1.40086 5.218252,1.51105 8.39063,0.75 5.53885,-1.32876 20.41586,-11.39101 30.41601,-20.02734 0.0468,-0.0404 0.0747,-0.0616 0.12109,-0.10156 0.55976,0.87081 1.02916,1.56606 1.66211,2.58984 2.58753,4.18523 7.57211,11.57943 11.07813,16.4375 18.01488,24.96203 27.94691,42.41425 32.84961,57.19727 0.47396,1.42912 2.75197,11.08928 3.08398,12.49414 -1.92601,1.03748 -4.25709,2.03939 -5.98047,2.48828 -6.1648,1.60572 -12.69668,0.7627 -29.95117,-6.08789 -13.64117,-5.41599 -20.9774,-7.92149 -29.90429,-10.14258 -11.04641,-2.74851 -15.11696,-3.23201 -26.787114,-3.18164 -9.79427,0.0422 -12.338679,0.28984 -17.390625,1.64258 -7.022755,1.88047 -11.826453,4.07457 -15.611329,7.97461 -7.958084,8.20035 -7.445077,21.43485 -0.710937,32.42968 5.506659,8.9907 17.300343,21.58435 26.105469,27.90039 16.164284,11.5947 34.264786,15.04093 57.589846,11.66993 9.64156,-1.39344 22.18591,-4.99266 30.50781,-8.76954 11.83214,-5.36999 23.02689,-15.531 28.36328,-26.04687 3.48297,-6.86351 6.22461,-18.02944 6.22461,-25.45899 0,-1.94558 -0.43152,-0.96524 1.27734,-3.14843 3.09566,-3.9549 7.039,-10.05452 10.84961,-16.32617 0.71937,19.41188 3.64749,34.81374 9.625,47.26757 6.87979,14.33364 19.01231,18.13802 30.77735,8.3086 5.30505,-4.43222 11.97038,-13.15661 16.85156,-21.49414 2.63954,5.52514 6.26961,10.37248 10.40234,12.37304 4.62774,2.24029 7.94011,1.98989 12.59961,-0.33203 5.57483,-2.77802 9.63664,-8.01366 13.62696,-15.81836 4.17135,5.28256 10.21524,10.73691 14.96875,13.08399 4.3771,2.16138 6.46344,2.64902 10.88671,2.42578 3.68696,-0.18622 6.27268,-0.82043 9.43946,-2.39453 5.13408,-2.55195 12.06282,-9.60575 16.30664,-15.89844 3.70569,4.61264 9.09981,9.80501 12.80469,11.74414 3.85878,2.01961 9.08777,2.46226 13.6582,1.42578 0.0876,1.11228 0.16295,2.07153 0.24219,3.06836 l -1.06836,0.0547 c -12.25724,0.62092 -22.37439,1.55708 -28.67969,2.67773 -42.45939,7.54624 -65.10775,28.33669 -68.67969,65.17578 -2.44118,25.17701 8.56621,60.19082 27.23828,88.75977 14.87085,22.75292 34.40485,39.84452 51.71094,43.6543 11.37521,2.50417 23.65947,-0.70009 31.4043,-8.63282 3.75768,-3.84888 7.95872,-11.56252 9.77539,-17.64648 1.81904,-6.09196 3.4301,-16.5115 4.16601,-26.55859 1.30672,-17.84051 0.25629,-56.01874 -3.02929,-112.33204 -0.38299,-6.56335 -0.65471,-12.16025 -0.8086,-16.11328 8.8549,0.3083 29.71536,2.12233 58.06446,5.20118 14.09214,1.53045 31.52118,1.7673 38.87304,0.22851 5.87269,-1.2292 13.34566,-4.65615 17.11133,-8.04101 4.30483,-3.86952 7.68951,-9.6903 9.75196,-16.12891 5.7607,-17.98382 -1.27049,-24.93526 -11.59571,-7.06055 -7.83132,13.55747 -10.90256,15.38597 -26.24805,15.83985 -10.71288,0.31693 -15.68731,-0.0995 -46.80078,-3.9668 -20.92758,-2.60123 -26.77297,-3.25164 -40.32422,-4.54102 l -0.41796,-6.80273 c -0.92987,-15.15963 -0.66836,-19.11204 0.92578,-24.31836 2.87972,-9.40505 4.5429,-22.4214 3.62304,-29.7832 -0.75846,-6.07065 -4.38557,-11.01005 -10.91796,-10.97461 -7.46801,0.0434 -10.75981,6.097 -12.66797,14.28125 -1.77841,7.62776 -2.22306,12.00119 -2.53711,24.23437 l -0.26953,10.56641 -0.72266,1.05273 c -2.02156,2.95048 -3.68411,3.08637 -5.19336,2.31641 -1.99184,-1.01615 -5.92221,-5.36274 -8.16211,-9.83789 -2.68156,-5.35758 -2.54595,-4.70395 -0.96484,-9.34375 2.55088,-7.48563 4.20991,-14.99804 4.21679,-19.75195 0.004,-3.64303 -0.28676,-6.19583 -2.97851,-8.72461 -3.47868,-3.26804 -8.82908,-3.46316 -12.67774,-0.94141 -5.58394,3.65875 -8.07144,14.03843 -8.66406,24.85742 -0.42608,7.7787 -0.47779,7.94587 -4.68554,15.88672 -8.27832,15.62277 -14.79996,16.22177 -22.63672,4.26758 -4.17065,-6.36193 -5.38977,-12.34975 -3.875,-22.00586 0.30602,-1.95066 0.52536,-4.02168 0.61914,-5.9043 7.70328,12.26238 16.56815,7.99406 13.13672,-8.20508 -2.0597,-9.72356 -7.76053,-18.27792 -15.75391,-22.44335 -3.19509,-1.66493 -5.62346,-2.14418 -9.80469,-2.16016 -4.20802,-0.0153 -6.65339,0.47021 -10.01562,2.12109 -6.13852,3.01406 -13.85994,11.67428 -19.45508,20.62891 -1.88526,-3.4348 -4.55975,-6.14269 -8.05664,-4.9336 -3.93158,1.36064 -4.16865,5.67085 -4.0586,7.19922 0.0318,0.43966 0.1496,5.02807 0.20899,9.5625 0.0954,7.29603 0.0715,7.6516 -1.17774,12.34571 -2.4151,9.07457 -7.96539,18.84286 -15.91406,27.61914 -2.68058,2.95972 -4.42341,4.36412 -5.29883,5.0332 -0.41615,-0.56584 -0.8085,-1.05386 -1.39453,-2.19727 -1.64424,-3.2081 -3.3147,-7.79638 -4.74023,-13.48828 -2.68215,-10.70937 -3.15028,-15.90004 -3.10352,-35.71289 0.0239,-10.11532 0.33601,-21.33565 0.64649,-24.60742 0.55493,-5.84777 0.57914,-5.90137 3.29883,-12.56836 1.72123,-4.21944 4.57879,-12.1332 6.35546,-17.5957 l 1.98047,-6.0918 c 1.76397,0.0339 5.70754,0.21871 9.5918,0.48828 12.41704,0.86173 50.27547,2.77344 55.80469,2.77344 11.8055,-2e-5 15.1466,-8.04406 3.56054,-13.16797 -7.30616,-3.23114 -11.77934,-3.85514 -47.81054,-6.79883 -5.97629,-0.48825 -11.43556,-0.96995 -15.42578,-1.35156 -0.46277,-0.0443 -0.67247,-0.0701 -1.0918,-0.11133 3.54028,-14.91614 5.44227,-29.95906 5.48242,-44.00586 0.0239,-8.34839 -0.0142,-11.63199 -1.43164,-14.37304 -4.55164,-8.80192 -13.57921,-5.0441 -18.32031,2.46289 -6.74234,10.67574 -11.60477,27.29368 -15.14649,50.26562 -0.1584,1.02743 -0.2977,1.86839 -0.44336,2.76172 -1.57798,-0.15828 -3.37377,-0.34563 -5.375,-0.57226 -8.33076,-0.94347 -14.86608,-2.05319 -21.16601,-3.57032 -6.30586,-1.5186 -11.1988,5.90433 -8.33789,11.25 3.36275,6.28331 16.65957,9.71465 32.56054,11.64844 -0.79361,6.08284 -2.21372,20.43851 -3.00781,30.4668 l -0.70508,8.89453 -3.69531,7.3457 c -3.99184,7.93409 -9.41461,16.93334 -13.65625,23.4043 -1.90162,-5.71466 -4.33666,-11.66869 -8.45312,-19.82422 -7.49848,-14.85598 -13.24997,-24.02064 -25.52539,-40.73828 -7.52915,-10.25376 -13.71836,-19.41321 -16.51758,-24.36524 l 3.06054,-3.43945 c 12.93615,-14.52369 24.76627,-29.37065 31.78516,-39.92383 11.80647,-17.75141 26.17257,-46.95725 30.71094,-62.650388 3.93696,-13.613513 3.50813,-29.953251 -1.45313,-41.15039 -4.71615,-10.643948 -14.58961,-17.444439 -25.92773,-17.41211 z m -0.8418,24.083985 c 0.91805,-0.212101 4.18528,1.351364 5.71485,5.46875 5.40889,14.560032 2.44337,31.790668 -13.43555,63.046873 -9.39523,18.49363 -15.90995,28.21644 -34.21875,50.96289 -1.87568,2.3303 -2.14437,2.61994 -3.51172,4.27539 -1.58423,-4.30969 -3.16417,-9.34684 -4.03906,-13.65039 -1.21504,-5.97666 -1.27774,-29.28651 0.0332,-37.08984 2.40474,-14.31422 7.25817,-28.91059 12.58594,-38.279298 7.28149,-12.804261 21.11427,-26.639854 32.58398,-32.720703 2.10638,-1.116712 4.28617,-2.013455 4.28711,-2.013672 z m -86.15625,163.042973 0.008,0.002 0.0664,0.0644 c -0.0235,-0.0286 -0.0506,-0.0382 -0.0742,-0.0664 z m 209.29102,46.38085 c 0,0 0.63247,0.38017 2.16601,1.14649 0.83256,0.41603 1.66298,1.04705 2.50782,1.82617 -3.17893,-0.84077 -6.78436,-0.0886 -9.51563,2.64258 -2.28285,2.28285 -3.17091,5.42389 -4.57031,11.52148 -3.99118,17.39044 -7.11346,25.92633 -10.0625,30.23633 -2.06156,-4.58541 -2.70839,-10.70383 -1.21485,-16.66015 3.53296,-14.08949 17.22226,-30.67644 20.68946,-30.7129 z M 93.462891,308.70898 c 13.523379,0.40918 23.678929,2.68771 46.132809,10.68164 14.2735,5.08154 21.09011,6.81109 28.81055,6.80079 2.61271,-0.004 5.48946,-0.29768 8.19141,-0.74805 -1.90187,2.90972 -4.29045,5.74202 -6.93555,7.97852 -5.85849,4.95354 -15.27041,9.13076 -27.83008,11.86328 -7.81263,1.69971 -22.17934,2.18097 -27.96875,1.08203 -10.36462,-1.96744 -18.148688,-6.27686 -27.767577,-15.93164 -9.053503,-9.08733 -13.333811,-16.15529 -13.339844,-18.65625 -9.75e-4,-0.40226 -0.618619,-0.0639 1.044922,-0.7793 4.358077,-1.87416 9.2253,-2.60679 19.66211,-2.29102 z m 296.210939,44.5586 c 0.21579,2.33509 0.82889,9.87187 1.50976,19.32031 4.83241,67.05757 4.43066,101.81939 -1.27734,124.35547 -2.26304,8.93505 -6.09135,13.34386 -9.69922,14.41992 l -0.008,0.002 c -3.78401,1.12374 -7.97386,0.7053 -14.57422,-2.61328 -15.25695,-7.67104 -31.5161,-26.21388 -43.29492,-50.34179 -8.3402,-17.08421 -12.19835,-30.9477 -12.79102,-45.06055 -0.69606,-16.57434 3.5427,-29.17824 11.94336,-38.00586 7.78918,-8.18512 17.39162,-13.38302 33.01367,-17.25586 10.83403,-2.68587 25.87663,-4.71062 35.17774,-4.82031 z"
       id="path847"
       inkscape:path-effect="#path-effect289"
       inkscape:original-d="m 369.99967,529.14175 c -15.43261,-3.39735 -33.92025,-19.19749 -48.41798,-41.37953 -18.24981,-27.92287 -28.69384,-61.69099 -26.39931,-85.35548 3.29398,-33.97236 23.82951,-53.27482 64.33729,-60.4742 6.07626,-1.07994 15.82259,-1.98552 28.0205,-2.60344 l 6.5089,-0.32973 -0.29361,-3.66703 c -0.16139,-2.01685 -0.4413,-5.56884 -0.62194,-7.89326 l -0.32836,-4.2263 -2.83354,1.46841 c -3.8413,1.99065 -9.41218,2.04431 -13.07719,0.12612 -3.3827,-1.7705 -10.0412,-8.33375 -13.06181,-12.87497 l -2.48583,-3.73722 -2.84409,4.81978 c -3.65484,6.19373 -10.87153,13.58178 -15.52734,15.896 -2.53594,1.26053 -4.24906,1.69108 -7.35174,1.84779 -3.77121,0.19033 -4.33201,0.0628 -8.27674,-1.88508 -5.23117,-2.58293 -12.51439,-9.64729 -15.75419,-15.28069 l -2.14593,-3.73137 -3.45812,7.04086 c -4.00134,8.14695 -7.55849,12.53056 -11.93963,14.71375 -3.45666,1.72252 -4.88929,1.7773 -7.93406,0.30333 -4.19325,-2.02986 -8.65712,-9.18094 -10.63723,-17.04058 l -1.03296,-4.10012 -2.53723,5.28644 c -4.49635,9.36829 -12.73996,20.66039 -18.74614,25.67838 -8.86783,7.40887 -17.05572,5.04202 -22.61318,-6.53662 -6.28646,-13.09752 -9.26614,-29.71381 -9.40516,-52.44821 -0.0383,-6.26955 -0.14261,-11.32633 -0.23173,-11.23727 -0.0891,0.0891 -2.23997,3.89895 -4.77971,8.46645 -4.76058,8.56153 -10.7908,17.93329 -14.99577,23.30541 -2.2322,2.85179 -2.40146,3.30349 -2.40146,6.4088 0,6.79931 -2.43023,16.71521 -5.65319,23.06634 -4.79365,9.44635 -14.84098,18.6344 -25.8318,23.62256 -7.99574,3.62884 -19.74254,7.00294 -29.07711,8.35201 -22.21498,3.21057 -38.973831,-0.13673 -53.749222,-10.73517 -8.364038,-5.99965 -19.472461,-17.86779 -24.676217,-26.36394 -5.839893,-9.5348 -5.842032,-19.96467 -0.0054,-25.97899 2.80846,-2.89391 6.64035,-4.79762 13.183782,-6.54975 4.780278,-1.27999 6.323751,-1.42068 16.04486,-1.46253 11.492937,-0.0496 14.622197,0.32199 25.487567,3.02545 8.55933,2.12964 15.7161,4.55975 29.2283,9.92453 17.62854,6.9991 25.09573,8.41261 33.23808,6.2918 3.53145,-0.91983 9.46096,-3.85369 9.83485,-4.86619 0.61881,-1.67571 -1.01114,-10.15497 -3.24942,-16.90399 -5.14712,-15.52001 -15.44055,-33.49036 -33.5819,-58.62762 -3.45714,-4.79034 -8.34818,-12.04564 -10.86896,-16.12291 -2.52078,-4.0773 -4.77419,-7.41809 -5.00756,-7.424 -0.23339,-0.006 -2.36432,1.66468 -4.73544,3.7124 -9.89661,8.54691 -23.73385,17.8176 -28.18966,18.88654 -2.411027,0.5784 -3.010418,0.53414 -4.834074,-0.35682 -1.579831,-0.77186 -2.125427,-1.39901 -2.262797,-2.6011 -0.264691,-2.31636 0.82958,-3.14311 2.101217,-1.58756 2.005651,2.4535 4.553544,1.40153 14.204934,-5.86489 8.00405,-6.02602 20.55506,-16.98415 20.55506,-17.94619 0,-0.39102 -1.14215,-3.15507 -2.53812,-6.14237 -7.76657,-16.62002 -10.99787,-34.86168 -9.62849,-54.35577 2.59452,-36.93497 14.82673,-64.221312 37.86073,-84.455779 13.54961,-11.902774 22.02323,-16.477437 30.56776,-16.502576 9.04827,-0.0258 17.17989,5.478204 21.07372,14.266239 4.41262,9.958904 4.88985,24.801075 1.20692,37.536188 -4.36541,15.095058 -18.41963,43.730268 -30.03251,61.190618 -6.89421,10.36572 -18.45482,24.88036 -31.32914,39.33464 l -5.58125,6.26617 1.71793,3.06369 c 2.89576,5.16424 9.35893,14.71464 17.00444,25.12688 12.15847,16.55836 17.7085,25.41266 25.06607,39.98949 5.24593,10.39323 8.00698,17.13042 9.81041,23.93815 0.69164,2.61087 1.50783,4.66636 1.81374,4.56778 1.9108,-0.61589 13.43031,-19.15753 19.93756,-32.0912 l 4.16269,-8.27368 0.78618,-9.92843 c 0.8882,-11.21683 2.84259,-31.09898 3.3164,-33.73794 l 0.31354,-1.74637 -3.22428,-0.35908 c -16.65828,-1.85519 -28.55845,-5.43123 -30.56777,-9.18565 -0.85011,-1.58845 0.78046,-4.00658 2.43328,-3.60854 6.56848,1.5818 13.30606,2.71939 21.80893,3.68235 5.57514,0.63137 10.21842,1.06613 10.31841,0.96615 0.1,-0.10004 0.69686,-3.52261 1.3264,-7.60585 3.5025,-22.71755 8.18718,-38.42276 14.39134,-48.24636 3.42802,-5.42787 7.2052,-6.60866 9.1444,-2.85865 0.70526,1.36387 0.8653,3.63154 0.84157,11.92674 -0.0399,13.95606 -1.94542,28.96213 -5.57309,43.88898 -0.58983,2.42696 -0.9032,4.56466 -0.69641,4.75049 0.20696,0.18575 10.18034,1.13888 22.16341,2.11787 36.00319,2.9414 39.42722,3.4142 46.10132,6.36581 4.54643,2.01065 4.0665,3.0374 -1.41979,3.0374 -4.83308,0 -43.12699,-1.90833 -55.43732,-2.76265 -4.24717,-0.29476 -9.08727,-0.53767 -10.75581,-0.53982 l -3.03368,-0.003 -3.18379,9.789 c -1.7511,5.38387 -4.55073,13.13978 -6.22139,17.23525 -2.76645,6.78162 -3.09367,8.03713 -3.66572,14.06527 -0.34546,3.64042 -0.64774,14.93399 -0.67173,25.09684 -0.0471,19.95499 0.47542,25.88294 3.26221,37.01013 2.96505,11.83894 7.33048,20.35409 10.4349,20.35409 1.94029,0 6.11932,-3.09026 10.0541,-7.43478 8.3804,-9.25297 14.44778,-19.82717 17.10454,-29.80975 1.31161,-4.92835 1.45322,-6.36661 1.35633,-13.77653 -0.0596,-4.55052 -0.15995,-8.99407 -0.22359,-9.87457 -0.0634,-0.88049 0.16712,-1.69856 0.5121,-1.81795 0.72622,-0.2511 3.77841,6.7713 4.36274,10.03779 0.217,1.21347 0.50746,2.40317 0.64528,2.64375 0.13787,0.2405 1.11611,-1.37275 2.17399,-3.58527 5.01945,-10.49794 14.56143,-21.91362 20.9311,-25.04117 2.77739,-1.36372 3.89388,-1.59393 7.66366,-1.5802 3.74219,0.0143 4.86355,0.2511 7.38051,1.56266 6.36019,3.31436 11.22222,10.35092 13.02159,18.84551 2.19847,10.37856 -0.23476,11.30627 -4.96648,1.89345 -3.42423,-6.81206 -6.13096,-9.99528 -10.24867,-12.05292 -1.88795,-0.94341 -3.95147,-1.70985 -4.58559,-1.7032 -7.41766,0.078 -22.01406,19.74296 -25.76885,34.71713 -2.03379,8.11086 -0.78874,17.40268 3.12414,23.31549 2.00487,3.02955 2.73983,3.11747 5.30498,0.63453 4.72455,-4.57315 8.38644,-14.34249 13.14015,-35.05546 1.37459,-5.9895 2.02315,-7.83304 3.15326,-8.96315 2.54529,-2.54525 6.77663,-1.37605 7.65274,2.1146 0.17944,0.71524 -0.0966,3.99718 -0.61368,7.29314 -1.69518,10.80618 -0.38718,17.99853 4.67848,25.72572 10.40138,15.86627 21.73392,14.19205 31.73866,-4.68881 4.3604,-8.22893 4.84325,-9.87821 5.2924,-18.0779 0.57158,-10.43494 3.04709,-18.60181 6.28076,-20.7206 1.96672,-1.28865 4.55222,-1.13182 6.15432,0.37327 1.12681,1.05859 1.31336,1.75079 1.31004,4.86134 -0.006,4.14535 -1.43998,10.73191 -3.93453,18.05222 -2.04459,5.99991 -1.94771,7.04732 1.24159,13.41934 2.49409,4.98302 7.28463,10.54599 10.48983,12.18114 4.36785,2.22831 8.66449,0.77799 11.96469,-4.03866 l 1.60374,-2.34068 0.31158,-12.13475 c 0.31076,-12.10492 0.70083,-15.8651 2.40311,-23.16633 1.69804,-7.28302 3.83528,-10.17039 7.54416,-10.19195 3.17081,-0.0172 5.11508,2.16863 5.63626,6.34007 0.82219,6.58019 -0.66723,18.54316 -3.43335,27.5772 -1.87995,6.13975 -2.08662,10.86256 -1.1463,26.1926 l 0.69363,11.30738 3.86105,0.36645 c 13.98705,1.32749 19.5695,1.95628 40.81684,4.59725 31.14991,3.87181 36.59816,4.33007 47.60817,4.00435 17.25394,-0.51032 21.91517,-3.31895 30.6744,-18.48279 4.01805,-6.95593 4.76213,-5.90136 1.97514,2.79908 -1.86536,5.82336 -4.76305,10.67294 -8.24991,13.8072 -3.1543,2.83532 -9.26275,5.66774 -14.65923,6.79727 -6.3992,1.33939 -23.33594,1.19908 -37.21595,-0.30834 -37.24885,-4.0454 -63.20179,-6.13102 -64.02547,-5.14518 -0.17916,0.21441 0.23161,9.94606 0.91314,21.62577 3.28343,56.27644 4.31385,94.17656 3.03508,111.63556 -0.72544,9.9041 -2.25359,19.72111 -3.9588,25.43185 -1.6821,5.6333 -5.2656,12.15909 -8.49118,15.46296 -6.36383,6.51822 -16.70429,9.31518 -26.4812,7.16286 z m 11.70524,-12.70287 c 6.05853,-1.7992 10.82467,-8.30546 13.32988,-18.19666 5.86022,-23.13709 6.26511,-58.90053 1.4271,-126.03581 -0.75422,-10.46622 -1.51739,-20.20847 -1.69586,-21.64948 l -0.32463,-2.62001 h -3.94713 c -9.6249,0.006 -25.88916,2.19285 -37.27164,5.01469 -16.34633,4.05239 -26.8691,9.59681 -35.57337,18.74353 -9.6544,10.14508 -14.14083,24.16916 -13.39713,41.87781 0.63137,15.03439 4.74158,29.58545 13.32117,47.16003 12.06152,24.70699 29.1463,44.43742 45.67508,52.74793 7.40175,3.72151 12.9089,4.60356 18.45653,2.95608 z M 142.95721,350.45494 c 13.0477,-2.83869 23.38812,-7.29861 30.1209,-12.9914 5.70622,-4.82476 10.66522,-12.21422 12.32921,-18.37189 0.54178,-2.00487 0.51472,-2.07796 -0.63779,-1.72275 -0.66196,0.20409 -1.87384,0.71183 -2.69306,1.12842 -2.76065,1.40399 -8.40599,2.39591 -13.67893,2.40336 -6.74078,0.009 -12.94211,-1.48079 -27.02737,-6.49531 -22.71676,-8.08753 -33.43297,-10.55327 -47.746918,-10.98637 -10.79348,-0.32657 -16.465633,0.37755 -21.913266,2.72026 -3.22865,1.38843 -4.253059,2.75256 -4.246022,5.65406 0.01118,4.63526 5.641608,13.10013 14.883959,22.37701 10.285917,10.3243 18.784047,15.16683 30.528537,17.3962 6.64963,1.26223 21.73123,0.70493 30.08075,-1.11159 z m 95.17248,-136.34675 c 0.33724,-1.54534 0.22273,-1.76414 -1.09657,-2.09525 -0.81021,-0.20323 -1.59508,-0.24766 -1.74413,-0.0986 -0.36708,0.36708 -1.76541,12.26157 -1.72525,14.67531 0.0246,1.47578 0.52175,0.43639 2.11076,-4.41265 1.14324,-3.48873 2.24809,-7.11963 2.45519,-8.06869 z m 2.73605,-11.09867 c 0.71152,-2.40408 3.13512,-15.9838 3.9177,-21.95131 1.10193,-8.4025 1.70283,-24.07437 0.87347,-22.78073 -1.85349,2.89119 -5.66676,19.2116 -8.03519,34.38992 -1.83778,11.77757 -1.8706,11.30738 0.7892,11.30738 1.58929,0 2.24551,-0.25798 2.45482,-0.96526 z m -92.38726,-19.68336 c 18.42854,-22.89521 25.24891,-33.06039 34.81179,-51.88403 16.16192,-31.81325 19.94546,-50.421624 13.68076,-67.285376 -2.16106,-5.817279 -7.52504,-9.787775 -11.86756,-8.784509 -0.84563,0.195206 -3.35413,1.31832 -5.57445,2.495437 -12.17411,6.454296 -27.10652,21.419267 -34.7047,34.780417 -5.68802,10.002191 -10.72883,25.278631 -13.20514,40.018871 -1.44095,8.57721 -1.44075,31.93186 3.3e-4,39.02042 1.21599,5.98139 3.79405,14.20507 5.95056,18.98153 1.38984,3.07837 1.69684,3.42699 2.46013,2.7935 0.47966,-0.39807 4.28139,-4.9594 8.44828,-10.13626 z" />
  </g>
</svg>
